# xmcd CD database file
#
# Track frame offsets:
#	150
#	20058
#	32079
#	48170
#	61568
#	79916
#	95938
#	113166
#	133276
#	156274
#	170010
#	185285
#
# Disc length: 2639 seconds
#
# Revision: 0
# Processed by: cddbd v1.5.2PL0 Copyright (c) Steve Scherf et al.
# Submitted via: CDex 1.51
#
DISCID=a10a4d0c
DTITLE=Terry Wolf and Back Porch Swing - Honky Tonk Train
DYEAR=2013
DGENRE=Country
TTITLE0=Drivin' Away
TTITLE1=Small Town Talkin
TTITLE2=Holdin' Out on Me
TTITLE3=Do You Remember_
TTITLE4=Honey in My Tea
TTITLE5=Honky Tonk Train
TTITLE6=Goin' Fast
TTITLE7=Great Wide West
TTITLE8=My Little Secret
TTITLE9=Handsome Man
TTITLE10=Everything I Know About Men
TTITLE11=Good Man, Bad Boy
EXTD=YEAR: 2013
EXTT0=
EXTT1=
EXTT2=
EXTT3=
EXTT4=
EXTT5=
EXTT6=
EXTT7=
EXTT8=
EXTT9=
EXTT10=
EXTT11=
PLAYORDER=
